/* XPM */
static char *_14e8ffb779b48d4be6a5292a3756235[] = {
/* columns rows colors chars-per-pixel */
"64 64 16 1 ",
"  c #1C75BC",
". c #2A7EC0",
"X c #3886C4",
"o c #478FC9",
"O c #5598CD",
"+ c #63A0D1",
"@ c #71A9D5",
"# c #7FB1D9",
"$ c #8EBADE",
"% c #9CC3E2",
"& c #AACBE6",
"* c #C6DDEE",
"= c #E3EEF7",
"- c #F1F6FB",
"; c gray100",
": c None",
/* pixels */
"::::::::                                                ::::::::",
"::::::                                                    ::::::",
"::::                                                        ::::",
":::                                                          :::",
"::                                                            ::",
"::                                                            ::",
":                                                              :",
":                                                              :",
"                                                                ",
"                .*;;;;;;;;;;;;;;;;;;;;;;;;;;;;&.                ",
"                *;;;;;;;;;;;;;;;;;;;;;;;;;;;;;;*                ",
"               X;;;;;;;;;;;;;;;;;;;;;;;;;;;;;;;;X               ",
"               O;;;;;;;;;;;;;;;;;;;;;;;;;;;;;;;;O               ",
"               O;;;;;;;;;;;;;;;;;;;;;;;;;;;;;;;;O               ",
"               O;;;;;;;;;;;;;;;;;;;;;;;;;;;;;;;;O               ",
"               O;;;;;;;;;;;;;;;;;;;;;;;;;;;;;;;;O               ",
"               O;;;;;;;;;;;;;;;;;;;;;;;;;;;;;;;;O               ",
"               O;;;;;;;;;;;;;;;;;;;;;;;;;;;;;;;;O               ",
"               O;;;;;;;;;;-%+OOOOOO+%-;;;;;;;;;;O               ",
"               O;;;;;;;;;-.          o-;;;;;;;;;O               ",
"               O;;;;;;;;;@            #;;;;;;;;;O               ",
"               O;;;;;;;;;O            O;;;;;;;;;O               ",
"               O;;;;;;;;;O            #;;;;;;;;;O               ",
"               O;;;;;;;;;O           o-;;;;;;;;;O               ",
"               O;;;;;;;;;O          o-;;;;;;;;;;O               ",
"               O;;;;;;;;;O         o-;;;;;;;;;;;O               ",
"               O;;;;;;;;;O        o-;;;;;;;;;;;;o               ",
"               O;;;;;;;;;O       o-;;;;;;;;;;;;=                ",
"               O;;;;;;;;;O      o-;;;;;;;;;;;;-o                ",
"               O;;;;;;;;;O     o-;;;;;;;;;;;;-o                 ",
"               O;;;;;;;;;O    o-;;;;;;;;;;;;-o                  ",
"               O;;;;;;;;;O   .=;;;;;;;;;;;;-o                   ",
"               O;;;;;;;;;O   @;;;;;;;;;;;;-o                    ",
"               O;;;;;;;;;O   $;;;;;;;;;;;-o                     ",
"               O;;;;;;;;;O   $;;;;;;;;;;-o                      ",
"               O;;;;;;;;;O   $;;;;;;;;;-o                       ",
"               O;;;;;;;;;O   $;;;;;;;;-o                        ",
"               O;;;;;;;;;O   $;;;;;;;-o                         ",
"               O;;;;;;;;;O   #;;;;;;-o                          ",
"               O;;;;;;;;;O   X;;;;;-o                           ",
"               O;;;;;;;;;O    @-;;-o                            ",
"               O;;;;;;;;;O     .OO.                             ",
"               O;;;;;;;;;O                                      ",
"               O;;;;;;;;;O                                      ",
"               O;;;;;;;;;O                                      ",
"               O;;;;;;;;;O                                      ",
"               O;;;;;;;;;O                                      ",
"               O;;;;;;;;;O                                      ",
"               O;;;;;;;;;O                                      ",
"               O;;;;;;;;;O                                      ",
"               O;;;;;;;;;O                                      ",
"               O;;;;;;;;;O                                      ",
"               o;;;;;;;;;o                                      ",
"                *;;;;;;;*                                       ",
"                .*;;;;;*.                                       ",
"                                                                ",
":                                                              :",
":                                                              :",
"::                                                            ::",
"::                                                            ::",
":::                                                          :::",
"::::                                                        ::::",
"::::::                                                    ::::::",
"::::::::                                                ::::::::"
};
