/* XPM */
static char *_91fe24e8f804ab8ec96de80b8107f76[] = {
/* columns rows colors chars-per-pixel */
"16 16 15 1 ",
"  c #1C75BC",
". c #2A7EC0",
"X c #478FC9",
"o c #5598CD",
"O c #63A0D1",
"+ c #71A9D5",
"@ c #7FB1D9",
"# c #8EBADE",
"$ c #9CC3E2",
"% c #AACBE6",
"& c #B8D4EA",
"* c #C6DDEE",
"= c #F1F6FB",
"- c gray100",
"; c None",
/* pixels */
";;;;;      ;;;;;",
";;;          ;;;",
";; .&******&  ;;",
";  o--------o  ;",
";  o--=**=--o  ;",
"   o--#  $--o   ",
"   o--# +---X   ",
"   o--#O---%    ",
"   o--#*--%     ",
"   o--#*-%      ",
"   o--#X@       ",
";  o--#        ;",
";  o--#        ;",
";; .**o       ;;",
";;;          ;;;",
";;;;;      ;;;;;"
};
