/* XPM */
static char *_bd71faa0e2a4757bde6dcf809c4546b[] = {
/* columns rows colors chars-per-pixel */
"128 128 18 1 ",
"  c #1C75BC",
". c #2A7EC0",
"X c #3886C4",
"o c #478FC9",
"O c #5598CD",
"+ c #63A0D1",
"@ c #71A9D5",
"# c #7FB1D9",
"$ c #8EBADE",
"% c #9CC3E2",
"& c #AACBE6",
"* c #B8D4EA",
"= c #C6DDEE",
"- c #D4E5F2",
"; c #E3EEF7",
": c #F1F6FB",
"> c gray100",
", c None",
/* pixels */
",,,,,,,,                                                                                                                ,,,,,,,,",
",,,,,,                                                                                                                    ,,,,,,",
",,,,                                                                                                                        ,,,,",
",,,                                                                                                                          ,,,",
",,                                                                                                                            ,,",
",,                                                                                                                            ,,",
",                                                                                                                              ,",
",                                                                                                                              ,",
"                                                                                                                                ",
"                                                                                                                                ",
"                                                                                                                                ",
"                                                                                                                                ",
"                                                                                                                                ",
"                                                                                                                                ",
"                                                                                                                                ",
"                                                                                                                                ",
"                                                                                                                                ",
"                                                                                                                                ",
"                                  .#->>>>>>>>>>>>>>>>>>>>>>>>>>>>>>>>>>>>>>>>>>>>>>>>>>>>>>-@                                   ",
"                                 o->>>>>>>>>>>>>>>>>>>>>>>>>>>>>>>>>>>>>>>>>>>>>>>>>>>>>>>>>>-.                                 ",
"                                .:>>>>>>>>>>>>>>>>>>>>>>>>>>>>>>>>>>>>>>>>>>>>>>>>>>>>>>>>>>>>-.                                ",
"                                &>>>>>>>>>>>>>>>>>>>>>>>>>>>>>>>>>>>>>>>>>>>>>>>>>>>>>>>>>>>>>>$                                ",
"                               .>>>>>>>>>>>>>>>>>>>>>>>>>>>>>>>>>>>>>>>>>>>>>>>>>>>>>>>>>>>>>>>:                                ",
"                               O>>>>>>>>>>>>>>>>>>>>>>>>>>>>>>>>>>>>>>>>>>>>>>>>>>>>>>>>>>>>>>>>o                               ",
"                               O>>>>>>>>>>>>>>>>>>>>>>>>>>>>>>>>>>>>>>>>>>>>>>>>>>>>>>>>>>>>>>>>O                               ",
"                               O>>>>>>>>>>>>>>>>>>>>>>>>>>>>>>>>>>>>>>>>>>>>>>>>>>>>>>>>>>>>>>>>O                               ",
"                               O>>>>>>>>>>>>>>>>>>>>>>>>>>>>>>>>>>>>>>>>>>>>>>>>>>>>>>>>>>>>>>>>O                               ",
"                               O>>>>>>>>>>>>>>>>>>>>>>>>>>>>>>>>>>>>>>>>>>>>>>>>>>>>>>>>>>>>>>>>O                               ",
"                               O>>>>>>>>>>>>>>>>>>>>>>>>>>>>>>>>>>>>>>>>>>>>>>>>>>>>>>>>>>>>>>>>O                               ",
"                               O>>>>>>>>>>>>>>>>>>>>>>>>>>>>>>>>>>>>>>>>>>>>>>>>>>>>>>>>>>>>>>>>O                               ",
"                               O>>>>>>>>>>>>>>>>>>>>>>>>>>>>>>>>>>>>>>>>>>>>>>>>>>>>>>>>>>>>>>>>O                               ",
"                               O>>>>>>>>>>>>>>>>>>>>>>>>>>>>>>>>>>>>>>>>>>>>>>>>>>>>>>>>>>>>>>>>O                               ",
"                               O>>>>>>>>>>>>>>>>>>>>>>>>>>>>>>>>>>>>>>>>>>>>>>>>>>>>>>>>>>>>>>>>O                               ",
"                               O>>>>>>>>>>>>>>>>>>>>>>>>>>>>>>>>>>>>>>>>>>>>>>>>>>>>>>>>>>>>>>>>O                               ",
"                               O>>>>>>>>>>>>>>>>>>>>>>>>>>>>>>>>>>>>>>>>>>>>>>>>>>>>>>>>>>>>>>>>O                               ",
"                               O>>>>>>>>>>>>>>>>>>>>>>>>>>>>>>>>>>>>>>>>>>>>>>>>>>>>>>>>>>>>>>>>O                               ",
"                               O>>>>>>>>>>>>>>>>>>>>>>>=%$$$$$$$$$$$$$$%=>>>>>>>>>>>>>>>>>>>>>>>O                               ",
"                               O>>>>>>>>>>>>>>>>>>>>>$.                  .%>>>>>>>>>>>>>>>>>>>>>O                               ",
"                               O>>>>>>>>>>>>>>>>>>>:o                      @>>>>>>>>>>>>>>>>>>>>O                               ",
"                               O>>>>>>>>>>>>>>>>>>>#                        $>>>>>>>>>>>>>>>>>>>O                               ",
"                               O>>>>>>>>>>>>>>>>>>;                          ;>>>>>>>>>>>>>>>>>>O                               ",
"                               O>>>>>>>>>>>>>>>>>>$                          %>>>>>>>>>>>>>>>>>>O                               ",
"                               O>>>>>>>>>>>>>>>>>>O                          $>>>>>>>>>>>>>>>>>>O                               ",
"                               O>>>>>>>>>>>>>>>>>>O                          #>>>>>>>>>>>>>>>>>>O                               ",
"                               O>>>>>>>>>>>>>>>>>>O                          %>>>>>>>>>>>>>>>>>>O                               ",
"                               O>>>>>>>>>>>>>>>>>>O                          :>>>>>>>>>>>>>>>>>>O                               ",
"                               O>>>>>>>>>>>>>>>>>>O                         $>>>>>>>>>>>>>>>>>>>O                               ",
"                               O>>>>>>>>>>>>>>>>>>O                        @>>>>>>>>>>>>>>>>>>>>O                               ",
"                               O>>>>>>>>>>>>>>>>>>O                       @>>>>>>>>>>>>>>>>>>>>>O                               ",
"                               O>>>>>>>>>>>>>>>>>>O                      @>>>>>>>>>>>>>>>>>>>>>>O                               ",
"                               O>>>>>>>>>>>>>>>>>>O                     @>>>>>>>>>>>>>>>>>>>>>>>O                               ",
"                               O>>>>>>>>>>>>>>>>>>O                    @>>>>>>>>>>>>>>>>>>>>>>>>O                               ",
"                               O>>>>>>>>>>>>>>>>>>O                   @>>>>>>>>>>>>>>>>>>>>>>>>>O                               ",
"                               O>>>>>>>>>>>>>>>>>>O                  @>>>>>>>>>>>>>>>>>>>>>>>>>>X                               ",
"                               O>>>>>>>>>>>>>>>>>>O                 @>>>>>>>>>>>>>>>>>>>>>>>>>>;                                ",
"                               O>>>>>>>>>>>>>>>>>>O                @>>>>>>>>>>>>>>>>>>>>>>>>>>>@                                ",
"                               O>>>>>>>>>>>>>>>>>>O               @>>>>>>>>>>>>>>>>>>>>>>>>>>>&                                 ",
"                               O>>>>>>>>>>>>>>>>>>O              @>>>>>>>>>>>>>>>>>>>>>>>>>>>&                                  ",
"                               O>>>>>>>>>>>>>>>>>>O             @>>>>>>>>>>>>>>>>>>>>>>>>>>>&                                   ",
"                               O>>>>>>>>>>>>>>>>>>O            @>>>>>>>>>>>>>>>>>>>>>>>>>>>&                                    ",
"                               O>>>>>>>>>>>>>>>>>>O           @>>>>>>>>>>>>>>>>>>>>>>>>>>>&                                     ",
"                               O>>>>>>>>>>>>>>>>>>O          @>>>>>>>>>>>>>>>>>>>>>>>>>>>&                                      ",
"                               O>>>>>>>>>>>>>>>>>>O         +>>>>>>>>>>>>>>>>>>>>>>>>>>>&                                       ",
"                               O>>>>>>>>>>>>>>>>>>O        .:>>>>>>>>>>>>>>>>>>>>>>>>>>&                                        ",
"                               O>>>>>>>>>>>>>>>>>>O        @>>>>>>>>>>>>>>>>>>>>>>>>>>&                                         ",
"                               O>>>>>>>>>>>>>>>>>>O        *>>>>>>>>>>>>>>>>>>>>>>>>>&                                          ",
"                               O>>>>>>>>>>>>>>>>>>O        =>>>>>>>>>>>>>>>>>>>>>>>>&                                           ",
"                               O>>>>>>>>>>>>>>>>>>O        =>>>>>>>>>>>>>>>>>>>>>>>&                                            ",
"                               O>>>>>>>>>>>>>>>>>>O        =>>>>>>>>>>>>>>>>>>>>>>&                                             ",
"                               O>>>>>>>>>>>>>>>>>>O        =>>>>>>>>>>>>>>>>>>>>>&                                              ",
"                               O>>>>>>>>>>>>>>>>>>O        =>>>>>>>>>>>>>>>>>>>>&                                               ",
"                               O>>>>>>>>>>>>>>>>>>O        =>>>>>>>>>>>>>>>>>>>&                                                ",
"                               O>>>>>>>>>>>>>>>>>>O        =>>>>>>>>>>>>>>>>>>&                                                 ",
"                               O>>>>>>>>>>>>>>>>>>O        =>>>>>>>>>>>>>>>>>&                                                  ",
"                               O>>>>>>>>>>>>>>>>>>O        =>>>>>>>>>>>>>>>>&                                                   ",
"                               O>>>>>>>>>>>>>>>>>>O        =>>>>>>>>>>>>>>>&                                                    ",
"                               O>>>>>>>>>>>>>>>>>>O        =>>>>>>>>>>>>>>&                                                     ",
"                               O>>>>>>>>>>>>>>>>>>O        &>>>>>>>>>>>>>&                                                      ",
"                               O>>>>>>>>>>>>>>>>>>O        +>>>>>>>>>>>>&                                                       ",
"                               O>>>>>>>>>>>>>>>>>>O         =>>>>>>>>>>&                                                        ",
"                               O>>>>>>>>>>>>>>>>>>O         X:>>>>>>>>&                                                         ",
"                               O>>>>>>>>>>>>>>>>>>O          .*>>>>>>$                                                          ",
"                               O>>>>>>>>>>>>>>>>>>O            X#$$@.                                                           ",
"                               O>>>>>>>>>>>>>>>>>>O                                                                             ",
"                               O>>>>>>>>>>>>>>>>>>O                                                                             ",
"                               O>>>>>>>>>>>>>>>>>>O                                                                             ",
"                               O>>>>>>>>>>>>>>>>>>O                                                                             ",
"                               O>>>>>>>>>>>>>>>>>>O                                                                             ",
"                               O>>>>>>>>>>>>>>>>>>O                                                                             ",
"                               O>>>>>>>>>>>>>>>>>>O                                                                             ",
"                               O>>>>>>>>>>>>>>>>>>O                                                                             ",
"                               O>>>>>>>>>>>>>>>>>>O                                                                             ",
"                               O>>>>>>>>>>>>>>>>>>O                                                                             ",
"                               O>>>>>>>>>>>>>>>>>>O                                                                             ",
"                               O>>>>>>>>>>>>>>>>>>O                                                                             ",
"                               O>>>>>>>>>>>>>>>>>>O                                                                             ",
"                               O>>>>>>>>>>>>>>>>>>O                                                                             ",
"                               O>>>>>>>>>>>>>>>>>>O                                                                             ",
"                               O>>>>>>>>>>>>>>>>>>O                                                                             ",
"                               O>>>>>>>>>>>>>>>>>>O                                                                             ",
"                               O>>>>>>>>>>>>>>>>>>O                                                                             ",
"                               O>>>>>>>>>>>>>>>>>>O                                                                             ",
"                               O>>>>>>>>>>>>>>>>>>O                                                                             ",
"                               O>>>>>>>>>>>>>>>>>>O                                                                             ",
"                               O>>>>>>>>>>>>>>>>>>O                                                                             ",
"                               .>>>>>>>>>>>>>>>>>>.                                                                             ",
"                                &>>>>>>>>>>>>>>>>&                                                                              ",
"                                X:>>>>>>>>>>>>>>:.                                                                              ",
"                                 o:>>>>>>>>>>>>:o                                                                               ",
"                                  .$;>>>>>>>>;$.                                                                                ",
"                                                                                                                                ",
"                                                                                                                                ",
"                                                                                                                                ",
"                                                                                                                                ",
"                                                                                                                                ",
"                                                                                                                                ",
"                                                                                                                                ",
"                                                                                                                                ",
"                                                                                                                                ",
"                                                                                                                                ",
",                                                                                                                              ,",
",                                                                                                                              ,",
",,                                                                                                                            ,,",
",,                                                                                                                            ,,",
",,,                                                                                                                          ,,,",
",,,,                                                                                                                        ,,,,",
",,,,,,                                                                                                                    ,,,,,,",
",,,,,,,,                                                                                                                ,,,,,,,,"
};
