/* XPM */
static char *c475ae17af51415c81398aeac531082b[] = {
/* columns rows colors chars-per-pixel */
"32 32 14 1 ",
"  c #1C75BC",
". c #2A7EC0",
"X c #3886C4",
"o c #478FC9",
"O c #5598CD",
"+ c #63A0D1",
"@ c #71A9D5",
"# c #8EBADE",
"$ c #9CC3E2",
"% c #C6DDEE",
"& c #D4E5F2",
"* c #F1F6FB",
"= c gray100",
"- c None",
/* pixels */
"--------                --------",
"------                    ------",
"----                        ----",
"---                          ---",
"--      +##############O      --",
"--     .================.     --",
"-      O================O      -",
"-      O================O      -",
"       O================O       ",
"       O=====#OOOO#=====O       ",
"       O====%      %====O       ",
"       O====%     .*====O       ",
"       O====%    .&=====O       ",
"       O====%   .&======X       ",
"       O====%  .&======@        ",
"       O====%  &======@         ",
"       O====% O======@          ",
"       O====% O=====@           ",
"       O====% O====@            ",
"       O====% o===@             ",
"       O====%  #%@              ",
"       O====%                   ",
"       O====%                   ",
"       O====%                   ",
"-      O====%                  -",
"-      O====%                  -",
"--     X====$                 --",
"--      +###.                 --",
"---                          ---",
"----                        ----",
"------                    ------",
"--------                --------"
};
